<svg width="20" height="20" viewBox="0 0 20 20" fill="none" xmlns="http://www.w3.org/2000/svg">
<g id="fi-br-chart-histogram" clip-path="url(#clip0_1_2146)">
<path id="Vector" d="M18.75 17.5H4.58333C4.0308 17.5 3.50089 17.2805 3.11019 16.8898C2.71949 16.4991 2.5 15.9692 2.5 15.4167V1.25C2.5 0.918479 2.3683 0.600537 2.13388 0.366117C1.89946 0.131696 1.58152 0 1.25 0C0.918479 0 0.600537 0.131696 0.366117 0.366117C0.131696 0.600537 0 0.918479 0 1.25L0 15.4167C0.00132347 16.6318 0.484634 17.7969 1.34389 18.6561C2.20314 19.5154 3.36816 19.9987 4.58333 20H18.75C19.0815 20 19.3995 19.8683 19.6339 19.6339C19.8683 19.3995 20 19.0815 20 18.75C20 18.4185 19.8683 18.1005 19.6339 17.8661C19.3995 17.6317 19.0815 17.5 18.75 17.5Z" fill="#F97316"/>
<path id="Vector_2" d="M7.91675 7.5C7.58523 7.5 7.26728 7.6317 7.03286 7.86612C6.79844 8.10054 6.66675 8.41848 6.66675 8.75V14.5833C6.66675 14.9149 6.79844 15.2328 7.03286 15.4672C7.26728 15.7016 7.58523 15.8333 7.91675 15.8333C8.24827 15.8333 8.56621 15.7016 8.80063 15.4672C9.03505 15.2328 9.16675 14.9149 9.16675 14.5833V8.75C9.16675 8.41848 9.03505 8.10054 8.80063 7.86612C8.56621 7.6317 8.24827 7.5 7.91675 7.5Z" fill="#FDBA74"/>
<path id="Vector_3" d="M11.6667 11.25V14.5833C11.6667 14.9149 11.7984 15.2328 12.0329 15.4672C12.2673 15.7016 12.5852 15.8333 12.9167 15.8333C13.2483 15.8333 13.5662 15.7016 13.8006 15.4672C14.0351 15.2328 14.1667 14.9149 14.1667 14.5833V11.25C14.1667 10.9185 14.0351 10.6005 13.8006 10.3661C13.5662 10.1317 13.2483 10 12.9167 10C12.5852 10 12.2673 10.1317 12.0329 10.3661C11.7984 10.6005 11.6667 10.9185 11.6667 11.25V11.25Z" fill="#FDBA74"/>
<path id="Vector_4" d="M16.6667 7.9165V14.5832C16.6667 14.9147 16.7984 15.2326 17.0329 15.467C17.2673 15.7015 17.5852 15.8332 17.9167 15.8332C18.2483 15.8332 18.5662 15.7015 18.8006 15.467C19.0351 15.2326 19.1667 14.9147 19.1667 14.5832V7.9165C19.1667 7.58498 19.0351 7.26704 18.8006 7.03262C18.5662 6.7982 18.2483 6.6665 17.9167 6.6665C17.5852 6.6665 17.2673 6.7982 17.0329 7.03262C16.7984 7.26704 16.6667 7.58498 16.6667 7.9165Z" fill="#FDBA74"/>
<path id="Vector_5" d="M5.00014 6.25009C5.28385 6.25069 5.55919 6.15391 5.78013 5.97592L7.67846 4.45842C8.06179 4.15068 8.54531 3.99544 9.03613 4.02251C9.52696 4.04958 9.99047 4.25706 10.3376 4.60509C11.1388 5.39608 12.2061 5.85999 13.331 5.90622C14.4559 5.95245 15.5576 5.57767 16.421 4.85509L19.5576 2.20092C19.6913 2.09763 19.8026 1.96832 19.8848 1.82081C19.9671 1.6733 20.0187 1.51064 20.0363 1.34266C20.054 1.17468 20.0374 1.00487 19.9876 0.843466C19.9379 0.682064 19.8559 0.532427 19.7467 0.403589C19.6374 0.274752 19.5032 0.169386 19.3521 0.093856C19.2011 0.0183256 19.0363 -0.0258032 18.8676 -0.0358657C18.699 -0.0459282 18.5301 -0.0217156 18.3712 0.0353099C18.2122 0.0923355 18.0664 0.180991 17.9426 0.295923L14.8068 2.95009C14.4227 3.27035 13.933 3.43588 13.4334 3.4143C12.9338 3.39273 12.4602 3.18561 12.1051 2.83342C11.3235 2.04962 10.28 1.58209 9.17476 1.52057C8.06956 1.45905 6.98057 1.80787 6.1168 2.50009L4.2193 4.02426C4.01715 4.18609 3.87024 4.40671 3.79888 4.65564C3.72753 4.90457 3.73524 5.16952 3.82096 5.41387C3.90668 5.65823 4.06618 5.86993 4.27741 6.01973C4.48864 6.16952 4.74118 6.25002 5.00014 6.25009V6.25009Z" fill="#FDBA74"/>
</g>
<defs>
<clipPath id="clip0_1_2146">
<rect width="20" height="20" fill="white"/>
</clipPath>
</defs>
</svg>
