<svg width="17" height="17" viewBox="0 0 17 17" fill="none" xmlns="http://www.w3.org/2000/svg">
    <g clip-path="url(#clip0_1480_1490)">
        <path
            d="M8.5 0.5C6.91775 0.5 5.37104 0.969192 4.05544 1.84824C2.73985 2.72729 1.71447 3.97672 1.10897 5.43853C0.503466 6.90034 0.34504 8.50887 0.653721 10.0607C0.962403 11.6126 1.72433 13.038 2.84315 14.1569C3.96197 15.2757 5.38743 16.0376 6.93928 16.3463C8.49113 16.655 10.0997 16.4965 11.5615 15.891C13.0233 15.2855 14.2727 14.2602 15.1518 12.9446C16.0308 11.629 16.5 10.0823 16.5 8.5C16.4977 6.37897 15.6541 4.34547 14.1543 2.84568C12.6545 1.34589 10.621 0.502294 8.5 0.5V0.5ZM8.5 14.5C7.31332 14.5 6.15328 14.1481 5.16658 13.4888C4.17989 12.8295 3.41085 11.8925 2.95673 10.7961C2.5026 9.69975 2.38378 8.49335 2.61529 7.32946C2.8468 6.16557 3.41825 5.09647 4.25736 4.25736C5.09648 3.41824 6.16558 2.8468 7.32946 2.61529C8.49335 2.38378 9.69975 2.5026 10.7961 2.95672C11.8925 3.41085 12.8295 4.17988 13.4888 5.16658C14.1481 6.15327 14.5 7.31331 14.5 8.5C14.4982 10.0908 13.8655 11.6159 12.7407 12.7407C11.6159 13.8655 10.0908 14.4982 8.5 14.5ZM11.8333 8.5C11.8333 8.76522 11.728 9.01957 11.5404 9.20711C11.3529 9.39464 11.0986 9.5 10.8333 9.5H9.5V10.8333C9.5 11.0986 9.39465 11.3529 9.20711 11.5404C9.01957 11.728 8.76522 11.8333 8.5 11.8333C8.23479 11.8333 7.98043 11.728 7.7929 11.5404C7.60536 11.3529 7.5 11.0986 7.5 10.8333V9.5H6.16667C5.90145 9.5 5.6471 9.39464 5.45956 9.20711C5.27203 9.01957 5.16667 8.76522 5.16667 8.5C5.16667 8.23478 5.27203 7.98043 5.45956 7.79289C5.6471 7.60536 5.90145 7.5 6.16667 7.5H7.5V6.16667C7.5 5.90145 7.60536 5.6471 7.7929 5.45956C7.98043 5.27202 8.23479 5.16667 8.5 5.16667C8.76522 5.16667 9.01957 5.27202 9.20711 5.45956C9.39465 5.6471 9.5 5.90145 9.5 6.16667V7.5H10.8333C11.0986 7.5 11.3529 7.60536 11.5404 7.79289C11.728 7.98043 11.8333 8.23478 11.8333 8.5Z"
            fill="#F97316" />
    </g>
    <defs>
        <clipPath id="clip0_1480_1490">
            <rect width="16" height="16" fill="white" transform="translate(0.5 0.5)" />
        </clipPath>
    </defs>
</svg>