<svg width="16" height="17" viewBox="0 0 16 17" fill="none" xmlns="http://www.w3.org/2000/svg">
<g id="fi-br-add" clip-path="url(#clip0_121_1201)">
<path id="Vector" d="M8 0.5C6.41775 0.5 4.87103 0.969192 3.55544 1.84824C2.23985 2.72729 1.21447 3.97672 0.608967 5.43853C0.00346629 6.90034 -0.15496 8.50888 0.153721 10.0607C0.462403 11.6126 1.22433 13.038 2.34315 14.1569C3.46197 15.2757 4.88743 16.0376 6.43928 16.3463C7.99113 16.655 9.59966 16.4965 11.0615 15.891C12.5233 15.2855 13.7727 14.2602 14.6518 12.9446C15.5308 11.629 16 10.0823 16 8.5C15.9977 6.37897 15.1541 4.34547 13.6543 2.84568C12.1545 1.34589 10.121 0.502294 8 0.5V0.5ZM8 14.5C6.81332 14.5 5.65328 14.1481 4.66658 13.4888C3.67989 12.8295 2.91085 11.8925 2.45673 10.7961C2.0026 9.69975 1.88378 8.49335 2.11529 7.32946C2.3468 6.16557 2.91825 5.09647 3.75736 4.25736C4.59648 3.41824 5.66558 2.8468 6.82946 2.61529C7.99335 2.38378 9.19975 2.5026 10.2961 2.95672C11.3925 3.41085 12.3295 4.17988 12.9888 5.16658C13.6481 6.15327 14 7.31331 14 8.5C13.9982 10.0908 13.3655 11.6159 12.2407 12.7407C11.1159 13.8655 9.59076 14.4982 8 14.5V14.5ZM11.3333 8.5C11.3333 8.76522 11.228 9.01957 11.0404 9.20711C10.8529 9.39464 10.5986 9.5 10.3333 9.5H9V10.8333C9 11.0986 8.89465 11.3529 8.70711 11.5404C8.51957 11.728 8.26522 11.8333 8 11.8333C7.73479 11.8333 7.48043 11.728 7.2929 11.5404C7.10536 11.3529 7 11.0986 7 10.8333V9.5H5.66667C5.40145 9.5 5.1471 9.39464 4.95956 9.20711C4.77203 9.01957 4.66667 8.76522 4.66667 8.5C4.66667 8.23478 4.77203 7.98043 4.95956 7.79289C5.1471 7.60536 5.40145 7.5 5.66667 7.5H7V6.16667C7 5.90145 7.10536 5.6471 7.2929 5.45956C7.48043 5.27202 7.73479 5.16667 8 5.16667C8.26522 5.16667 8.51957 5.27202 8.70711 5.45956C8.89465 5.6471 9 5.90145 9 6.16667V7.5H10.3333C10.5986 7.5 10.8529 7.60536 11.0404 7.79289C11.228 7.98043 11.3333 8.23478 11.3333 8.5V8.5Z" fill="white"/>
</g>
<defs>
<clipPath id="clip0_121_1201">
<rect width="16" height="16" fill="white" transform="translate(0 0.5)"/>
</clipPath>
</defs>
</svg>
