<svg width="18" height="19" viewBox="0 0 18 19" fill="none" xmlns="http://www.w3.org/2000/svg">
<g id="fi-br-angle-small-left">
<path id="Vector" d="M9.2656 10.2825C9.23076 10.3174 9.18938 10.3451 9.14382 10.364C9.09826 10.3829 9.04942 10.3927 9.0001 10.3927C8.95077 10.3927 8.90193 10.3829 8.85637 10.364C8.81081 10.3451 8.76943 10.3174 8.7346 10.2825L5.29584 6.843C5.0849 6.63195 4.79875 6.51335 4.50036 6.51328C4.20197 6.51321 3.91577 6.63167 3.70472 6.84262C3.49367 7.05357 3.37507 7.33971 3.375 7.6381C3.37493 7.9365 3.4934 8.2227 3.70435 8.43374L7.14385 11.8732C7.63662 12.3647 8.30416 12.6406 9.0001 12.6406C9.69603 12.6406 10.3636 12.3647 10.8563 11.8732L14.2958 8.43374C14.5068 8.2227 14.6253 7.9365 14.6252 7.6381C14.6251 7.33971 14.5065 7.05357 14.2955 6.84262C14.0844 6.63167 13.7982 6.51321 13.4998 6.51328C13.2014 6.51335 12.9153 6.63195 12.7043 6.843L9.2656 10.2825Z" fill="#4B5563"/>
</g>
</svg>
