<svg width="40" height="40" viewBox="0 0 40 40" fill="none" xmlns="http://www.w3.org/2000/svg">
    <g clip-path="url(#clip0_847_3700)">
        <path
            d="M17.8006 40C13.7559 40.0053 9.8703 38.4242 6.97831 35.5965C0.926904 29.3081 1.04507 19.3261 7.24368 13.1827L16.9676 3.46043C20.9407 -0.626976 27.3195 -1.15875 31.9146 2.21439C36.81 5.97282 37.7317 12.9881 33.9733 17.8835C33.6797 18.2659 33.3617 18.6289 33.0213 18.9702L22.8456 29.1458C21.7004 30.3432 20.1806 31.1134 18.5378 31.3291C16.3111 31.573 14.1068 30.7072 12.6414 29.0131C10.3947 26.135 10.6349 22.0363 13.2023 19.4403L20.9596 11.6897C21.9433 10.7063 23.538 10.7063 24.5217 11.6897C25.5051 12.6735 25.5051 14.2681 24.5217 15.2518L16.5259 23.2493C15.8224 23.9534 15.8227 25.0944 16.5268 25.7979C17.2308 26.5013 18.3718 26.501 19.0753 25.797L29.3434 15.5306C31.4513 13.4809 31.8412 10.2373 30.2788 7.74646C28.4339 4.90454 24.6344 4.09628 21.7925 5.94125C21.4367 6.17222 21.1058 6.43949 20.8051 6.7388L10.6714 16.8809C6.84109 20.6001 6.34348 26.5757 9.50589 30.8773C13.0233 35.4584 19.5886 36.3206 24.1696 32.8032C24.5275 32.5283 24.8673 32.2306 25.1868 31.9118L33.1842 23.916C34.1679 22.9326 35.7626 22.9326 36.7463 23.916C37.7297 24.8998 37.7297 26.4944 36.7463 27.4781L28.7488 35.4739C25.847 38.3793 21.9069 40.0082 17.8006 40Z"
            fill="#9CA3AF" />
    </g>
    <defs>
        <clipPath id="clip0_847_3700">
            <rect width="40" height="40" fill="white" />
        </clipPath>
    </defs>
</svg>