<svg width="16" height="17" viewBox="0 0 16 17" fill="none" xmlns="http://www.w3.org/2000/svg">
    <g clip-path="url(#clip0_1166_3414)">
        <path
            d="M3.29535 4.23709L0.682683 6.84976C0.258433 7.29433 0.0217285 7.88524 0.0217285 8.49976C0.0217285 9.11428 0.258433 9.70518 0.682683 10.1498L3.29535 12.7624C3.3876 12.8579 3.49794 12.9341 3.61995 12.9865C3.74195 13.0389 3.87317 13.0665 4.00595 13.0677C4.13873 13.0688 4.27041 13.0435 4.3933 12.9932C4.5162 12.943 4.62785 12.8687 4.72175 12.7748C4.81564 12.6809 4.88989 12.5693 4.94017 12.4464C4.99045 12.3235 5.01575 12.1918 5.0146 12.059C5.01345 11.9262 4.98586 11.795 4.93345 11.673C4.88104 11.551 4.80486 11.4407 4.70935 11.3484L2.85668 9.49442L15.0234 9.47909C15.2886 9.47909 15.5429 9.37373 15.7305 9.1862C15.918 8.99866 16.0233 8.74431 16.0233 8.47909C16.0233 8.21387 15.918 7.95952 15.7305 7.77198C15.5429 7.58445 15.2886 7.47909 15.0234 7.47909L2.86668 7.49442L4.70935 5.65109C4.89151 5.46249 4.9923 5.20988 4.99002 4.94769C4.98775 4.68549 4.88258 4.43468 4.69717 4.24927C4.51176 4.06386 4.26095 3.95869 3.99875 3.95641C3.73655 3.95413 3.48395 4.05493 3.29535 4.23709Z"
            fill="#4B5563" />
    </g>
    <defs>
        <clipPath id="clip0_1166_3414">
            <rect width="16" height="16" fill="white" transform="translate(0 0.5)" />
        </clipPath>
    </defs>
</svg>