<svg width="16" height="17" viewBox="0 0 16 17" fill="none" xmlns="http://www.w3.org/2000/svg">
<g clip-path="url(#clip0_1319_4628)">
<path d="M8 0.5C3.58172 0.5 0 4.08172 0 8.5C0 12.9183 3.58172 16.5 8 16.5C12.4183 16.5 16 12.9183 16 8.5C15.9952 4.08369 12.4163 0.504781 8 0.5ZM8 2.5C9.24509 2.50012 10.4589 2.88991 11.4713 3.61466L3.11466 11.9707C1.19269 9.27759 1.81781 5.53638 4.51088 3.61441C5.52906 2.88778 6.74913 2.49809 8 2.5ZM8 14.5C6.75509 14.4999 5.54147 14.1102 4.52934 13.3853L12.8853 5.02869C14.8077 7.7215 14.1831 11.4628 11.4902 13.3851C10.4718 14.1121 9.25131 14.502 8 14.5Z" fill="#EF4444"/>
</g>
<defs>
<clipPath id="clip0_1319_4628">
<rect width="16" height="16" fill="white" transform="translate(0 0.5)"/>
</clipPath>
</defs>
</svg>
