<svg width="18" height="19" viewBox="0 0 18 19" fill="none" xmlns="http://www.w3.org/2000/svg">
    <path
        d="M14.2958 6.39055C14.1914 6.28601 14.0673 6.20308 13.9308 6.1465C13.7942 6.08991 13.6479 6.06079 13.5001 6.06079C13.3523 6.06079 13.2059 6.08991 13.0694 6.1465C12.9329 6.20308 12.8088 6.28601 12.7043 6.39055L9.26484 9.8293C9.19452 9.8996 9.09916 9.9391 8.99972 9.9391C8.90028 9.9391 8.80492 9.8996 8.73459 9.8293L5.29584 6.39055C5.0849 6.1795 4.79875 6.0609 4.50036 6.06083C4.20197 6.06076 3.91577 6.17923 3.70472 6.39018C3.49367 6.60112 3.37507 6.88727 3.375 7.18566C3.37493 7.48405 3.4934 7.77026 3.70435 7.9813L7.14384 11.4208C7.3876 11.6646 7.67699 11.858 7.99549 11.9899C8.31399 12.1218 8.65535 12.1897 9.00009 12.1897C9.34484 12.1897 9.6862 12.1218 10.0047 11.9899C10.3232 11.858 10.6126 11.6646 10.8563 11.4208L14.2958 7.9813C14.5068 7.77033 14.6252 7.48424 14.6252 7.18593C14.6252 6.88762 14.5068 6.60152 14.2958 6.39055Z"
        fill="#4B5563" />
</svg>