<svg width="18" height="19" viewBox="0 0 18 19" fill="none" xmlns="http://www.w3.org/2000/svg">
    <path
        d="M3.70416 12.6094C3.80863 12.714 3.93268 12.7969 4.06922 12.8535C4.20576 12.9101 4.35211 12.9392 4.49991 12.9392C4.6477 12.9392 4.79405 12.9101 4.93059 12.8535C5.06713 12.7969 5.19118 12.714 5.29566 12.6094L8.73516 9.1707C8.80548 9.1004 8.90084 9.0609 9.00028 9.0609C9.09972 9.0609 9.19508 9.1004 9.26541 9.1707L12.7042 12.6094C12.9151 12.8205 13.2012 12.9391 13.4996 12.9392C13.798 12.9392 14.0842 12.8208 14.2953 12.6098C14.5063 12.3989 14.6249 12.1127 14.625 11.8143C14.6251 11.5159 14.5066 11.2297 14.2957 11.0187L10.8562 7.5792C10.6124 7.33542 10.323 7.14204 10.0045 7.0101C9.68601 6.87817 9.34465 6.81026 8.99991 6.81026C8.65516 6.81026 8.3138 6.87817 7.9953 7.0101C7.6768 7.14204 7.38741 7.33542 7.14366 7.5792L3.70416 11.0187C3.49325 11.2297 3.37477 11.5158 3.37477 11.8141C3.37477 12.1124 3.49325 12.3985 3.70416 12.6094Z"
        fill="#4B5563" />
</svg>