<svg width="32" height="33" viewBox="0 0 32 33" fill="none" xmlns="http://www.w3.org/2000/svg">
<path d="M18.8283 16.5L31.4145 3.91516C32.1958 3.13388 32.1958 1.86718 31.4145 1.08596C30.6332 0.30468 29.3665 0.30468 28.5853 1.08596L16.0004 13.6721L3.41565 1.08596C2.63436 0.30468 1.36767 0.30468 0.586449 1.08596C-0.194769 1.86724 -0.194832 3.13394 0.586449 3.91516L13.1726 16.5L0.586449 29.0848C-0.194832 29.8661 -0.194832 31.1328 0.586449 31.914C1.36773 32.6952 2.63443 32.6953 3.41565 31.914L16.0004 19.3278L28.5852 31.914C29.3665 32.6953 30.6332 32.6953 31.4144 31.914C32.1957 31.1327 32.1957 29.866 31.4144 29.0848L18.8283 16.5Z" fill="#1F2937"/>
</svg>
