<svg width="24" height="24" viewBox="0 0 24 24" fill="none" xmlns="http://www.w3.org/2000/svg">
<g clip-path="url(#clip0_1319_4662)">
<path d="M16.061 7.9387C15.4754 7.35272 14.5257 7.35243 13.9397 7.93804C13.9395 7.93828 13.9392 7.93851 13.939 7.9387L12 9.87871L10.061 7.9387C9.47504 7.35272 8.52498 7.35272 7.93905 7.9387C7.35311 8.52468 7.35306 9.47475 7.93905 10.0607L9.87901 11.9997L7.939 13.9387C7.35302 14.5247 7.35302 15.4747 7.939 16.0607C8.52498 16.6467 9.47504 16.6467 10.061 16.0607L12 14.1207L13.939 16.0607C14.525 16.6467 15.475 16.6467 16.061 16.0607C16.647 15.4747 16.647 14.5247 16.061 13.9387L14.121 11.9997L16.061 10.0607C16.647 9.47512 16.6473 8.52539 16.0617 7.9394C16.0614 7.93917 16.0613 7.93893 16.061 7.9387Z" fill="#FCA5A5"/>
<path d="M12 0C5.37258 0 0 5.37258 0 12C0 18.6274 5.37258 24 12 24C18.6274 24 24 18.6274 24 12C23.9928 5.37553 18.6245 0.00717187 12 0ZM12 21C7.02942 21 3 16.9706 3 12C3 7.02942 7.02942 3 12 3C16.9706 3 21 7.02942 21 12C20.9945 16.9683 16.9683 20.9945 12 21Z" fill="#FCA5A5"/>
</g>
<defs>
<clipPath id="clip0_1319_4662">
<rect width="24" height="24" fill="white"/>
</clipPath>
</defs>
</svg>
