<svg xmlns="http://www.w3.org/2000/svg" width="22" height="22" viewBox="0 0 22 22" fill="none">
    <path
        d="M21.0832 4.125C21.0832 3.36561 20.4676 2.75 19.7082 2.75H16.2469C15.6676 1.10675 14.1172 0.00558594 12.3749 0H9.62485C7.88251 0.00558594 6.33207 1.10675 5.75285 2.75H2.2915C1.53212 2.75 0.916504 3.36561 0.916504 4.125C0.916504 4.88439 1.53212 5.5 2.2915 5.5H2.74985V16.9583C2.74985 19.7428 5.00709 22 7.7915 22H14.2082C16.9926 22 19.2499 19.7428 19.2499 16.9583V5.5H19.7082C20.4676 5.5 21.0832 4.88439 21.0832 4.125ZM16.4999 16.9583C16.4999 18.224 15.4738 19.25 14.2082 19.25H7.7915C6.52586 19.25 5.49985 18.224 5.49985 16.9583V5.5H16.4999V16.9583Z"
        fill="#EF4444" />
    <path
        d="M8.70801 16.5C9.46739 16.5 10.083 15.8844 10.083 15.125V9.625C10.083 8.86561 9.46739 8.25 8.70801 8.25C7.94862 8.25 7.33301 8.86561 7.33301 9.625V15.125C7.33301 15.8844 7.94862 16.5 8.70801 16.5Z"
        fill="#EF4444" />
    <path
        d="M13.2915 16.5C14.0509 16.5 14.6665 15.8844 14.6665 15.125V9.625C14.6665 8.86561 14.0509 8.25 13.2915 8.25C12.5321 8.25 11.9165 8.86561 11.9165 9.625V15.125C11.9165 15.8844 12.5321 16.5 13.2915 16.5Z"
        fill="#EF4444" />
</svg>