<svg width="55" height="51" viewBox="0 0 55 51" fill="none" xmlns="http://www.w3.org/2000/svg">
<g clip-path="url(#clip0_847_3527)">
<path d="M27.5 18.5C28.8807 18.5 30 17.3807 30 16C30 14.6193 28.8807 13.5 27.5 13.5C26.1193 13.5 25 14.6193 25 16C25 17.3807 26.1193 18.5 27.5 18.5Z" fill="#9CA3AF"/>
<path d="M27.5 28C28.8807 28 30 26.8807 30 25.5C30 24.1193 28.8807 23 27.5 23C26.1193 23 25 24.1193 25 25.5C25 26.8807 26.1193 28 27.5 28Z" fill="#9CA3AF"/>
<path d="M27.5 37.5C28.8807 37.5 30 36.3807 30 35C30 33.6193 28.8807 32.5001 27.5 32.5001C26.1193 32.5001 25 33.6193 25 35C25 36.3807 26.1193 37.5 27.5 37.5Z" fill="#9CA3AF"/>
</g>
<defs>
<clipPath id="clip0_847_3527">
<rect width="24" height="24" fill="white" transform="translate(15.5 13.5)"/>
</clipPath>
</defs>
</svg>
