<svg width="16" height="17" viewBox="0 0 16 17" fill="none" xmlns="http://www.w3.org/2000/svg">
<g id="Group">
<path id="Vector" d="M5.89859 12.3C7.07015 13.4716 8.96965 13.4716 10.1412 12.3L10.1413 12.3L12.2826 10.1587C12.6799 9.77497 12.6909 9.14191 12.3072 8.74466C11.9235 8.34741 11.2904 8.33641 10.8932 8.72009C10.8848 8.72812 10.8766 8.73634 10.8686 8.74466L9.01327 10.5993L8.99793 1.5C8.99793 0.947719 8.55021 0.5 7.99793 0.5C7.44565 0.5 6.99793 0.947719 6.99793 1.5L7.01193 10.5847L5.17127 8.744C4.77402 8.36031 4.14096 8.37131 3.75727 8.76856C3.38299 9.15609 3.38299 9.77047 3.75727 10.158L5.89859 12.3Z" fill="#16A34A"/>
<path id="Vector_2" d="M15 10.1641C14.4477 10.1641 14 10.6118 14 11.1641V14.2247C13.9996 14.3752 13.8778 14.497 13.7273 14.4974H2.27266C2.12222 14.497 2.00034 14.3752 2 14.2247V11.1641C2 10.6118 1.55228 10.1641 1 10.1641C0.447719 10.1641 0 10.6118 0 11.1641V14.2247C0.00146875 15.4793 1.01812 16.4959 2.27266 16.4974H13.7273C14.9819 16.4959 15.9985 15.4793 16 14.2247V11.1641C16 10.6118 15.5523 10.1641 15 10.1641Z" fill="#4ADE80"/>
</g>
</svg>
