<svg width="16" height="17" viewBox="0 0 16 17" fill="none" xmlns="http://www.w3.org/2000/svg">
<g clip-path="url(#clip0_847_4513)">
<path d="M5.90054 12.3C7.0721 13.4716 8.9716 13.4716 10.1432 12.3L10.1432 12.3L12.2846 10.1587C12.6818 9.77497 12.6928 9.14191 12.3091 8.74466C11.9254 8.34741 11.2924 8.33641 10.8951 8.72009C10.8868 8.72812 10.8786 8.73634 10.8706 8.74466L9.01523 10.5993L8.99988 1.5C8.99988 0.947719 8.55216 0.5 7.99988 0.5C7.4476 0.5 6.99988 0.947719 6.99988 1.5L7.01388 10.5847L5.17323 8.744C4.77598 8.36031 4.14291 8.37131 3.75923 8.76856C3.38495 9.15609 3.38495 9.77047 3.75923 10.158L5.90054 12.3Z" fill="white"/>
<path d="M15 10.1666C14.4477 10.1666 14 10.6143 14 11.1666V14.2273C13.9996 14.3777 13.8778 14.4996 13.7273 14.4999H2.27266C2.12222 14.4996 2.00034 14.3777 2 14.2273V11.1666C2 10.6143 1.55228 10.1666 1 10.1666C0.447719 10.1666 0 10.6143 0 11.1666V14.2273C0.00146875 15.4818 1.01812 16.4985 2.27266 16.5H13.7273C14.9819 16.4985 15.9985 15.4818 16 14.2273V11.1667C16 10.6143 15.5523 10.1666 15 10.1666Z" fill="#FDBA74"/>
</g>
<defs>
<clipPath id="clip0_847_4513">
<rect width="16" height="16" fill="white" transform="translate(0 0.5)"/>
</clipPath>
</defs>
</svg>
