<svg xmlns="http://www.w3.org/2000/svg" width="22" height="18" viewBox="0 0 22 18" fill="none">
  <path d="M21.1183 6.14351C18.8923 2.70897 15.0918 0.620094 10.9991 0.581696C6.90639 0.620094 3.10588 2.70897 0.879831 6.14351C-0.293277 7.86511 -0.293277 10.1293 0.879831 11.8509C3.10463 15.2876 6.90535 17.3786 10.9991 17.4183C15.0918 17.3799 18.8923 15.291 21.1184 11.8564C22.2939 10.1335 22.2939 7.86637 21.1183 6.14351ZM18.8405 10.29C17.141 12.9857 14.1857 14.6303 10.9991 14.6539C7.81244 14.6304 4.85717 12.9857 3.15759 10.29C2.62774 9.51157 2.62774 8.48834 3.15759 7.70997C4.85712 5.01428 7.8124 3.36964 10.9991 3.34601C14.1857 3.3696 17.1409 5.01428 18.8405 7.70997C19.3704 8.48834 19.3704 9.51157 18.8405 10.29Z" fill="#374151"/>
  <path d="M10.9987 12.6851C13.0343 12.6851 14.6845 11.035 14.6845 8.99937C14.6845 6.96379 13.0343 5.31363 10.9987 5.31363C8.96315 5.31363 7.31299 6.96379 7.31299 8.99937C7.31299 11.035 8.96315 12.6851 10.9987 12.6851Z" fill="#374151"/>
</svg>