<svg width="16" height="17" viewBox="0 0 16 17" fill="none" xmlns="http://www.w3.org/2000/svg">
<g id="fi-br-sad" clip-path="url(#clip0_215_831)">
<path id="Vector" d="M5.66667 5.16667C6.12333 5.18181 6.55533 5.37754 6.86781 5.7109C7.18029 6.04425 7.34772 6.48798 7.33334 6.94467C7.33334 7.83334 6.58734 7.83334 5.66667 7.83334C4.746 7.83334 4 7.83334 4 6.94467C3.98562 6.48798 4.15305 6.04425 4.46553 5.7109C4.77801 5.37754 5.21001 5.18181 5.66667 5.16667ZM8.66667 6.94467C8.66667 7.83334 9.41267 7.83334 10.3333 7.83334C11.254 7.83334 12 7.83334 12 6.94467C12.0144 6.48798 11.847 6.04425 11.5345 5.7109C11.222 5.37754 10.79 5.18181 10.3333 5.16667C9.87667 5.18181 9.44468 5.37754 9.1322 5.7109C8.81972 6.04425 8.65229 6.48798 8.66667 6.94467ZM16 8.5C16 6.91775 15.5308 5.37104 14.6518 4.05544C13.7727 2.73985 12.5233 1.71447 11.0615 1.10897C9.59966 0.503466 7.99113 0.34504 6.43928 0.653721C4.88743 0.962403 3.46197 1.72433 2.34315 2.84315C1.22433 3.96197 0.462403 5.38743 0.153721 6.93928C-0.15496 8.49113 0.00346629 10.0997 0.608967 11.5615C1.21447 13.0233 2.23985 14.2727 3.55544 15.1518C4.87104 16.0308 6.41775 16.5 8 16.5C10.121 16.4977 12.1545 15.6541 13.6543 14.1543C15.1541 12.6545 15.9977 10.621 16 8.5ZM14 8.5C14 9.68669 13.6481 10.8467 12.9888 11.8334C12.3295 12.8201 11.3925 13.5892 10.2961 14.0433C9.19975 14.4974 7.99335 14.6162 6.82946 14.3847C5.66558 14.1532 4.59648 13.5818 3.75736 12.7426C2.91825 11.9035 2.3468 10.8344 2.11529 9.67055C1.88378 8.50666 2.0026 7.30026 2.45673 6.2039C2.91085 5.10755 3.67989 4.17047 4.66658 3.51119C5.65328 2.8519 6.81332 2.5 8 2.5C9.59076 2.50177 11.1159 3.13448 12.2407 4.25931C13.3655 5.38415 13.9982 6.90925 14 8.5ZM11.3767 11.8707C11.4692 11.7774 11.5425 11.6668 11.5922 11.5452C11.642 11.4237 11.6674 11.2935 11.6668 11.1621C11.6662 11.0307 11.6398 10.9007 11.589 10.7796C11.5382 10.6584 11.464 10.5485 11.3707 10.456C10.4442 9.6258 9.244 9.1667 8 9.1667C6.75601 9.1667 5.55577 9.6258 4.62934 10.456C4.44366 10.641 4.33846 10.8918 4.33659 11.1539C4.33471 11.4161 4.43632 11.6683 4.61934 11.856C4.80411 12.0442 5.05535 12.1523 5.31902 12.1572C5.5827 12.162 5.83775 12.0632 6.02934 11.882C6.58112 11.4185 7.27869 11.1643 7.99934 11.1643C8.71999 11.1643 9.41756 11.4185 9.96934 11.882C10.1583 12.0657 10.4122 12.1673 10.6757 12.1648C10.9393 12.1623 11.1912 12.0559 11.3767 11.8687V11.8707Z" fill="#EF4444"/>
</g>
<defs>
<clipPath id="clip0_215_831">
<rect width="16" height="16" fill="white" transform="translate(0 0.5)"/>
</clipPath>
</defs>
</svg>
