<svg width="18" height="18" viewBox="0 0 18 18" fill="none" xmlns="http://www.w3.org/2000/svg">
<g id="fi-br-arrow-small-right">
<path id="Vector" d="M12.7957 7.14384L10.1062 4.45435C9.89514 4.2434 9.60894 4.12493 9.31055 4.125C9.01215 4.12507 8.72601 4.24367 8.51506 4.45472C8.30412 4.66577 8.18565 4.95197 8.18572 5.25036C8.18579 5.54875 8.30439 5.8349 8.51544 6.04585L10.3447 7.8751H3.74994C3.45157 7.8751 3.16542 7.99362 2.95444 8.2046C2.74347 8.41558 2.62494 8.70173 2.62494 9.0001C2.62494 9.29846 2.74347 9.58461 2.95444 9.79559C3.16542 10.0066 3.45157 10.1251 3.74994 10.1251H10.3447L8.51544 11.9543C8.30439 12.1653 8.18579 12.4514 8.18572 12.7498C8.18565 13.0482 8.30412 13.3344 8.51506 13.5455C8.72601 13.7565 9.01215 13.8751 9.31055 13.8752C9.60894 13.8753 9.89514 13.7568 10.1062 13.5458L12.7957 10.8563C13.2871 10.3636 13.5631 9.69603 13.5631 9.0001C13.5631 8.30416 13.2871 7.63662 12.7957 7.14384V7.14384Z" fill="#F97316"/>
</g>
</svg>
