<svg width="16" height="17" viewBox="0 0 16 17" fill="none" xmlns="http://www.w3.org/2000/svg">
<g clip-path="url(#clip0_2621_2325)">
<path d="M14 8.16667V10.5H12C11.4696 10.5 10.9609 10.7107 10.5858 11.0858C10.2107 11.4609 10 11.9696 10 12.5V14.5H3C2.73478 14.5 2.48043 14.3946 2.29289 14.2071C2.10536 14.0196 2 13.7652 2 13.5V3.5C2 3.23478 2.10536 2.98043 2.29289 2.79289C2.48043 2.60536 2.73478 2.5 3 2.5H9C9.26522 2.5 9.51957 2.39464 9.70711 2.20711C9.89464 2.01957 10 1.76522 10 1.5C10 1.23478 9.89464 0.98043 9.70711 0.792893C9.51957 0.605357 9.26522 0.5 9 0.5H3C2.20435 0.5 1.44129 0.816071 0.87868 1.37868C0.316071 1.94129 0 2.70435 0 3.5L0 13.5C0 14.2956 0.316071 15.0587 0.87868 15.6213C1.44129 16.1839 2.20435 16.5 3 16.5H10.9893C11.7847 16.5 12.5474 16.1842 13.11 15.622L15.1213 13.6107C15.6838 13.0482 15.9998 12.2854 16 11.49V8.16667C16 7.90145 15.8946 7.6471 15.7071 7.45956C15.5196 7.27202 15.2652 7.16667 15 7.16667C14.7348 7.16667 14.4804 7.27202 14.2929 7.45956C14.1054 7.6471 14 7.90145 14 8.16667Z" fill="white"/>
<path d="M11.8617 1.69538L3.52834 10.0287C3.40331 10.1537 3.33305 10.3232 3.33301 10.5V12.5C3.33301 12.6769 3.40325 12.8464 3.52827 12.9715C3.65329 13.0965 3.82286 13.1667 3.99967 13.1667H5.99967C6.17647 13.1667 6.34601 13.0964 6.47101 12.9714L14.6917 4.75071C14.9698 4.48247 15.1743 4.14718 15.2855 3.77708C15.3966 3.40697 15.4107 3.01449 15.3263 2.63738C15.232 2.28665 15.0473 1.96677 14.7908 1.70961C14.5343 1.45245 14.2149 1.26699 13.8645 1.17169C13.514 1.0764 13.1446 1.07461 12.7932 1.16649C12.4418 1.25837 12.1207 1.44072 11.8617 1.69538Z" fill="#FB923C"/>
</g>
<defs>
<clipPath id="clip0_2621_2325">
<rect width="16" height="16" fill="white" transform="translate(0 0.5)"/>
</clipPath>
</defs>
</svg>
