<svg width="453" height="160" viewBox="0 0 453 160" fill="none" xmlns="http://www.w3.org/2000/svg">
<path d="M2.25207 49.2421C0.859822 50.1403 0.459338 51.9971 1.35757 53.3894C2.25579 54.7816 4.11259 55.1821 5.50484 54.2839L2.25207 49.2421ZM23.9353 46.8515L26.1701 44.8501L23.9353 46.8515ZM13.6387 45.4661L15.265 47.9869L13.6387 45.4661ZM51.6133 73.2617L26.1701 44.8501L21.7004 48.8528L47.1436 77.2644L51.6133 73.2617ZM12.0123 42.9452L2.25207 49.2421L5.50484 54.2839L15.265 47.9869L12.0123 42.9452ZM26.1701 44.8501C22.5613 40.8202 16.5579 40.0125 12.0123 42.9452L15.265 47.9869C17.3313 46.6539 20.06 47.0211 21.7004 48.8528L26.1701 44.8501Z" fill="#374151"/>
<path d="M56.4967 99.883L55.4407 78.571L84.3367 47.563H105.265L76.4647 78.763L65.9047 89.803L56.4967 99.883ZM39.5047 114.763V47.563H58.3207V114.763H39.5047ZM84.6247 114.763L62.7367 87.019L75.1207 73.771L106.705 114.763H84.6247Z" fill="#22C55E"/>
<circle cx="48.8784" cy="116.263" r="7.5" fill="#374151" stroke="white" stroke-width="2"/>
<circle cx="94.8784" cy="116.263" r="7.5" fill="#374151" stroke="white" stroke-width="2"/>
<path d="M137.349 114.763V105.067L136.101 102.667V84.811C136.101 81.931 135.205 79.723 133.413 78.187C131.685 76.587 128.901 75.787 125.061 75.787C122.565 75.787 120.037 76.203 117.477 77.035C114.917 77.803 112.741 78.891 110.949 80.299L104.805 67.915C107.749 65.995 111.269 64.523 115.365 63.499C119.525 62.411 123.653 61.867 127.749 61.867C136.197 61.867 142.725 63.819 147.333 67.723C152.005 71.563 154.341 77.611 154.341 85.867V114.763H137.349ZM121.989 115.627C117.829 115.627 114.309 114.923 111.429 113.515C108.549 112.107 106.341 110.187 104.805 107.755C103.333 105.323 102.597 102.603 102.597 99.595C102.597 96.395 103.397 93.643 104.997 91.339C106.661 88.971 109.189 87.179 112.581 85.963C115.973 84.683 120.357 84.043 125.733 84.043H138.021V93.547H128.229C125.285 93.547 123.205 94.027 121.989 94.987C120.837 95.947 120.261 97.227 120.261 98.827C120.261 100.427 120.869 101.707 122.085 102.667C123.301 103.627 124.965 104.107 127.077 104.107C129.061 104.107 130.853 103.627 132.453 102.667C134.117 101.643 135.333 100.107 136.101 98.059L138.597 104.779C137.637 108.363 135.749 111.083 132.933 112.939C130.181 114.731 126.533 115.627 121.989 115.627ZM181.886 115.627C177.47 115.627 173.15 115.115 168.926 114.091C164.766 113.067 161.406 111.787 158.846 110.251L164.318 97.771C166.75 99.243 169.598 100.427 172.862 101.323C176.126 102.155 179.326 102.571 182.462 102.571C185.534 102.571 187.646 102.251 188.798 101.611C190.014 100.971 190.622 100.107 190.622 99.019C190.622 97.995 190.046 97.259 188.894 96.811C187.806 96.299 186.334 95.915 184.478 95.659C182.686 95.403 180.702 95.115 178.526 94.795C176.35 94.475 174.142 94.059 171.902 93.547C169.726 92.971 167.71 92.139 165.854 91.051C164.062 89.899 162.622 88.363 161.534 86.443C160.446 84.523 159.902 82.091 159.902 79.147C159.902 75.819 160.862 72.875 162.782 70.315C164.766 67.691 167.646 65.643 171.422 64.171C175.198 62.635 179.806 61.867 185.246 61.867C188.894 61.867 192.574 62.251 196.286 63.019C200.062 63.723 203.23 64.811 205.79 66.283L200.318 78.667C197.758 77.195 195.198 76.203 192.638 75.691C190.078 75.115 187.646 74.827 185.342 74.827C182.27 74.827 180.094 75.179 178.814 75.883C177.598 76.587 176.99 77.451 176.99 78.475C176.99 79.499 177.534 80.299 178.622 80.875C179.71 81.387 181.15 81.803 182.942 82.123C184.798 82.379 186.814 82.667 188.99 82.987C191.166 83.243 193.342 83.659 195.518 84.235C197.758 84.811 199.774 85.675 201.566 86.827C203.422 87.915 204.894 89.419 205.982 91.339C207.07 93.195 207.614 95.595 207.614 98.539C207.614 101.739 206.622 104.619 204.638 107.179C202.718 109.739 199.838 111.787 195.998 113.323C192.222 114.859 187.518 115.627 181.886 115.627ZM239.858 115.627C233.714 115.627 228.338 114.475 223.73 112.171C219.186 109.803 215.634 106.603 213.074 102.571C210.578 98.475 209.33 93.835 209.33 88.651C209.33 83.467 210.546 78.859 212.978 74.827C215.474 70.731 218.898 67.563 223.25 65.323C227.602 63.019 232.498 61.867 237.938 61.867C243.058 61.867 247.73 62.923 251.954 65.035C256.178 67.083 259.538 70.123 262.034 74.155C264.53 78.187 265.778 83.083 265.778 88.843C265.778 89.483 265.746 90.219 265.682 91.051C265.618 91.883 265.554 92.651 265.49 93.355H224.306V83.755H255.794L248.882 86.443C248.946 84.075 248.498 82.027 247.538 80.299C246.642 78.571 245.362 77.227 243.698 76.267C242.098 75.307 240.21 74.827 238.034 74.827C235.858 74.827 233.938 75.307 232.274 76.267C230.674 77.227 229.426 78.603 228.53 80.395C227.634 82.123 227.186 84.171 227.186 86.539V89.323C227.186 91.883 227.698 94.091 228.722 95.947C229.81 97.803 231.346 99.243 233.33 100.267C235.314 101.227 237.682 101.707 240.434 101.707C242.994 101.707 245.17 101.355 246.962 100.651C248.818 99.883 250.642 98.731 252.434 97.195L262.034 107.179C259.538 109.931 256.466 112.043 252.818 113.515C249.17 114.923 244.85 115.627 239.858 115.627ZM271.308 114.763V62.731H288.684V77.899L286.092 73.579C287.628 69.675 290.124 66.763 293.58 64.843C297.036 62.859 301.228 61.867 306.156 61.867V78.283C305.324 78.155 304.588 78.091 303.948 78.091C303.372 78.027 302.732 77.995 302.028 77.995C298.316 77.995 295.308 79.019 293.004 81.067C290.7 83.051 289.548 86.315 289.548 90.859V114.763H271.308ZM339.391 114.763V105.067L338.143 102.667V84.811C338.143 81.931 337.247 79.723 335.455 78.187C333.727 76.587 330.943 75.787 327.103 75.787C324.607 75.787 322.079 76.203 319.519 77.035C316.959 77.803 314.783 78.891 312.991 80.299L306.847 67.915C309.791 65.995 313.311 64.523 317.407 63.499C321.567 62.411 325.695 61.867 329.791 61.867C338.239 61.867 344.767 63.819 349.375 67.723C354.047 71.563 356.383 77.611 356.383 85.867V114.763H339.391ZM324.031 115.627C319.871 115.627 316.351 114.923 313.471 113.515C310.591 112.107 308.383 110.187 306.847 107.755C305.375 105.323 304.639 102.603 304.639 99.595C304.639 96.395 305.439 93.643 307.039 91.339C308.703 88.971 311.231 87.179 314.623 85.963C318.015 84.683 322.399 84.043 327.775 84.043H340.063V93.547H330.271C327.327 93.547 325.247 94.027 324.031 94.987C322.879 95.947 322.303 97.227 322.303 98.827C322.303 100.427 322.911 101.707 324.127 102.667C325.343 103.627 327.007 104.107 329.119 104.107C331.103 104.107 332.895 103.627 334.495 102.667C336.159 101.643 337.375 100.107 338.143 98.059L340.639 104.779C339.679 108.363 337.791 111.083 334.975 112.939C332.223 114.731 328.575 115.627 324.031 115.627Z" fill="#22C55E"/>
<mask id="path-6-outside-1_2088_23" maskUnits="userSpaceOnUse" x="343.15" y="22.2555" width="117.909" height="117.909" fill="black">
<rect fill="white" x="343.15" y="22.2555" width="117.909" height="117.909"/>
<path d="M406.746 127.868C399.667 128.116 393.062 127.236 386.929 125.23C380.794 123.139 375.436 120.082 370.856 116.058C366.36 112.031 362.778 107.246 360.108 101.704C357.435 96.0766 355.98 89.8517 355.742 83.0291C355.503 76.2066 356.523 69.9379 358.799 64.223C361.073 58.4228 364.354 53.3558 368.643 49.0222C372.931 44.6885 378.065 41.3073 384.042 38.8786C390.102 36.3616 396.756 34.9765 404.005 34.7233C412.448 34.4285 420.045 35.5721 426.795 38.1541C433.545 40.7361 439.187 44.5949 443.721 49.7304L428.112 64.8764C424.926 61.6576 421.514 59.3006 417.875 57.8053C414.319 56.2218 410.366 55.506 406.017 55.6579C402.179 55.7919 398.704 56.511 395.59 57.8151C392.476 59.1192 389.851 60.9613 387.714 63.3413C385.574 65.6361 383.92 68.3835 382.751 71.5836C381.664 74.6954 381.189 78.2128 381.326 82.1357C381.457 85.8881 382.175 89.3211 383.479 92.4349C384.868 95.5456 386.712 98.2136 389.01 100.439C391.304 102.579 394.009 104.235 397.124 105.407C400.321 106.49 403.796 106.967 407.548 106.836C411.3 106.705 414.947 105.98 418.487 104.661C422.024 103.256 425.574 100.998 429.137 97.8847L443.957 115.17C438.968 119.016 433.14 122.037 426.471 124.234C419.802 126.431 413.227 127.642 406.746 127.868ZM421.455 112.626L420.275 78.8544L442.662 78.0727L443.957 115.17L421.455 112.626Z"/>
</mask>
<path d="M406.746 127.868C399.667 128.116 393.062 127.236 386.929 125.23C380.794 123.139 375.436 120.082 370.856 116.058C366.36 112.031 362.778 107.246 360.108 101.704C357.435 96.0766 355.98 89.8517 355.742 83.0291C355.503 76.2066 356.523 69.9379 358.799 64.223C361.073 58.4228 364.354 53.3558 368.643 49.0222C372.931 44.6885 378.065 41.3073 384.042 38.8786C390.102 36.3616 396.756 34.9765 404.005 34.7233C412.448 34.4285 420.045 35.5721 426.795 38.1541C433.545 40.7361 439.187 44.5949 443.721 49.7304L428.112 64.8764C424.926 61.6576 421.514 59.3006 417.875 57.8053C414.319 56.2218 410.366 55.506 406.017 55.6579C402.179 55.7919 398.704 56.511 395.59 57.8151C392.476 59.1192 389.851 60.9613 387.714 63.3413C385.574 65.6361 383.92 68.3835 382.751 71.5836C381.664 74.6954 381.189 78.2128 381.326 82.1357C381.457 85.8881 382.175 89.3211 383.479 92.4349C384.868 95.5456 386.712 98.2136 389.01 100.439C391.304 102.579 394.009 104.235 397.124 105.407C400.321 106.49 403.796 106.967 407.548 106.836C411.3 106.705 414.947 105.98 418.487 104.661C422.024 103.256 425.574 100.998 429.137 97.8847L443.957 115.17C438.968 119.016 433.14 122.037 426.471 124.234C419.802 126.431 413.227 127.642 406.746 127.868ZM421.455 112.626L420.275 78.8544L442.662 78.0727L443.957 115.17L421.455 112.626Z" fill="#F97316"/>
<path d="M386.929 125.23L383.703 134.696L383.762 134.716L383.821 134.735L386.929 125.23ZM370.856 116.058L364.183 123.506L364.219 123.539L364.256 123.571L370.856 116.058ZM360.108 101.704L351.075 105.994L351.087 106.019L351.099 106.044L360.108 101.704ZM358.799 64.223L368.089 67.9238L368.099 67.8982L368.109 67.8725L358.799 64.223ZM368.643 49.0222L361.535 41.9881L361.535 41.9881L368.643 49.0222ZM384.042 38.8786L387.806 48.143L387.842 48.1285L387.878 48.1136L384.042 38.8786ZM426.795 38.1541L430.367 28.814L430.367 28.814L426.795 38.1541ZM443.721 49.7304L450.685 56.9071L457.532 50.2637L451.218 43.1121L443.721 49.7304ZM428.112 64.8764L421.005 71.9115L427.971 78.9478L435.076 72.0531L428.112 64.8764ZM417.875 57.8053L413.807 66.9406L413.94 66.9996L414.074 67.0547L417.875 57.8053ZM387.714 63.3413L395.028 70.1613L395.092 70.0923L395.155 70.0221L387.714 63.3413ZM382.751 71.5836L373.358 68.1522L373.333 68.2192L373.31 68.2866L382.751 71.5836ZM383.479 92.4349L374.255 96.298L374.3 96.4061L374.348 96.5131L383.479 92.4349ZM389.01 100.439L382.053 107.622L382.121 107.688L382.19 107.752L389.01 100.439ZM397.124 105.407L393.602 114.766L393.757 114.824L393.913 114.877L397.124 105.407ZM418.487 104.661L421.978 114.031L422.078 113.994L422.177 113.955L418.487 104.661ZM429.137 97.8847L436.728 91.3757L430.158 83.713L422.557 90.3542L429.137 97.8847ZM443.957 115.17L450.062 123.09L458.406 116.658L451.549 108.661L443.957 115.17ZM426.471 124.234L429.599 133.732L426.471 124.234ZM421.455 112.626L411.461 112.975L411.762 121.594L420.331 122.563L421.455 112.626ZM420.275 78.8544L419.926 68.8605L409.932 69.2095L410.281 79.2034L420.275 78.8544ZM442.662 78.0727L452.656 77.7237L452.307 67.7298L442.313 68.0788L442.662 78.0727ZM443.957 115.17L442.834 125.107L454.356 126.409L453.951 114.821L443.957 115.17ZM406.397 117.875C400.376 118.085 394.952 117.333 390.038 115.726L383.821 134.735C391.172 137.139 398.958 138.146 407.095 137.862L406.397 117.875ZM390.156 115.765C385.183 114.07 380.989 111.649 377.455 108.545L364.256 123.571C369.883 128.514 376.406 132.208 383.703 134.696L390.156 115.765ZM377.528 108.609C374.027 105.473 371.23 101.751 369.117 97.3643L351.099 106.044C354.325 112.742 358.694 118.589 364.183 123.506L377.528 108.609ZM369.141 97.414C367.109 93.1346 365.931 88.2689 365.736 82.6801L345.748 83.3781C346.029 91.4344 347.762 99.0187 351.075 105.994L369.141 97.414ZM365.736 82.6801C365.54 77.0892 366.379 72.2174 368.089 67.9238L349.509 60.5222C346.666 67.6584 345.466 75.3241 345.748 83.3781L365.736 82.6801ZM368.109 67.8725C369.898 63.3102 372.44 59.4019 375.751 56.0563L361.535 41.9881C356.268 47.3098 352.248 53.5353 349.489 60.5735L368.109 67.8725ZM375.751 56.0563C379.032 52.7401 383.009 50.0925 387.806 48.143L380.278 29.6141C373.121 32.5222 366.83 36.637 361.535 41.9881L375.751 56.0563ZM387.878 48.1136C392.72 46.1026 398.178 44.9329 404.354 44.7172L403.656 24.7294C395.335 25.02 387.484 26.6205 380.206 29.6435L387.878 48.1136ZM404.354 44.7172C411.682 44.4613 417.915 45.4641 423.222 47.4941L430.367 28.814C422.174 25.68 413.214 24.3957 403.656 24.7294L404.354 44.7172ZM423.222 47.4941C428.549 49.5318 432.819 52.4908 436.225 56.3488L451.218 43.1121C445.556 36.6989 438.541 31.9404 430.367 28.814L423.222 47.4941ZM436.757 42.5537L421.148 57.6997L435.076 72.0531L450.685 56.9071L436.757 42.5537ZM435.219 57.8413C431.232 53.8134 426.727 50.6317 421.676 48.556L414.074 67.0547C416.3 67.9695 418.62 69.5018 421.005 71.9115L435.219 57.8413ZM421.943 48.6701C416.843 46.399 411.355 45.4654 405.668 45.664L406.366 65.6518C409.378 65.5466 411.795 66.0447 413.807 66.9406L421.943 48.6701ZM405.668 45.664C400.787 45.8344 396.098 46.7606 391.727 48.5914L399.453 67.0388C401.309 66.2613 403.572 65.7494 406.366 65.6518L405.668 45.664ZM391.727 48.5914C387.324 50.4353 383.454 53.1175 380.273 56.6605L395.155 70.0221C396.248 68.8051 397.628 67.8031 399.453 67.0388L391.727 48.5914ZM380.4 56.5213C377.272 59.8764 374.946 63.8036 373.358 68.1522L392.144 75.0149C392.893 72.9633 393.876 71.3957 395.028 70.1613L380.4 56.5213ZM373.31 68.2866C371.744 72.7691 371.16 77.5539 371.332 82.4847L391.32 81.7867C391.218 78.8716 391.583 76.6216 392.192 74.8806L373.31 68.2866ZM371.332 82.4847C371.501 87.3103 372.434 91.9509 374.255 96.298L392.702 88.5717C391.915 86.6914 391.414 84.4659 391.32 81.7867L371.332 82.4847ZM374.348 96.5131C376.223 100.711 378.781 104.453 382.053 107.622L395.966 93.2551C394.643 91.9736 393.513 90.3798 392.609 88.3567L374.348 96.5131ZM382.19 107.752C385.497 110.836 389.34 113.162 393.602 114.766L400.645 96.0472C398.678 95.3069 397.112 94.3211 395.829 93.1252L382.19 107.752ZM393.913 114.877C398.377 116.39 403.071 116.998 407.897 116.83L407.199 96.8417C404.52 96.9353 402.265 96.5903 400.334 95.9359L393.913 114.877ZM407.897 116.83C412.73 116.661 417.437 115.723 421.978 114.031L414.995 95.2899C412.456 96.236 409.871 96.7484 407.199 96.8417L407.897 116.83ZM422.177 113.955C426.992 112.043 431.497 109.101 435.716 105.415L422.557 90.3542C419.65 92.8939 417.056 94.4692 414.797 95.3662L422.177 113.955ZM421.545 104.394L436.365 121.679L451.549 108.661L436.728 91.3757L421.545 104.394ZM437.852 107.25C433.855 110.331 429.059 112.853 423.342 114.736L429.599 133.732C437.22 131.221 444.081 127.701 450.062 123.09L437.852 107.25ZM423.342 114.736C417.498 116.661 411.858 117.684 406.397 117.875L407.095 137.862C414.596 137.6 422.106 136.2 429.599 133.732L423.342 114.736ZM431.449 112.277L430.269 78.5054L410.281 79.2034L411.461 112.975L431.449 112.277ZM420.624 88.8483L443.011 88.0666L442.313 68.0788L419.926 68.8605L420.624 88.8483ZM432.668 78.4217L433.963 115.519L453.951 114.821L452.656 77.7237L432.668 78.4217ZM445.081 105.233L422.578 102.689L420.331 122.563L442.834 125.107L445.081 105.233Z" fill="white" mask="url(#path-6-outside-1_2088_23)"/>
</svg>
