<svg width="20" height="20" viewBox="0 0 20 20" fill="none" xmlns="http://www.w3.org/2000/svg">
<g id="fi-br-chart-histogram" clip-path="url(#clip0_1_2549)">
<path id="Vector" d="M18.75 17.5H4.58333C4.0308 17.5 3.50089 17.2805 3.11019 16.8898C2.71949 16.4991 2.5 15.9692 2.5 15.4167V1.25C2.5 0.918479 2.3683 0.600537 2.13388 0.366117C1.89946 0.131696 1.58152 0 1.25 0C0.918479 0 0.600537 0.131696 0.366117 0.366117C0.131696 0.600537 0 0.918479 0 1.25L0 15.4167C0.00132347 16.6318 0.484634 17.7969 1.34389 18.6561C2.20314 19.5154 3.36816 19.9987 4.58333 20H18.75C19.0815 20 19.3995 19.8683 19.6339 19.6339C19.8683 19.3995 20 19.0815 20 18.75C20 18.4185 19.8683 18.1005 19.6339 17.8661C19.3995 17.6317 19.0815 17.5 18.75 17.5Z" fill="#9CA3AF"/>
<path id="Vector_2" d="M7.91675 7.5C7.58523 7.5 7.26728 7.6317 7.03286 7.86612C6.79844 8.10054 6.66675 8.41848 6.66675 8.75V14.5833C6.66675 14.9149 6.79844 15.2328 7.03286 15.4672C7.26728 15.7016 7.58523 15.8333 7.91675 15.8333C8.24827 15.8333 8.56621 15.7016 8.80063 15.4672C9.03505 15.2328 9.16675 14.9149 9.16675 14.5833V8.75C9.16675 8.41848 9.03505 8.10054 8.80063 7.86612C8.56621 7.6317 8.24827 7.5 7.91675 7.5Z" fill="#D1D5DB"/>
<path id="Vector_3" d="M11.6667 11.25V14.5833C11.6667 14.9149 11.7984 15.2328 12.0329 15.4672C12.2673 15.7016 12.5852 15.8333 12.9167 15.8333C13.2483 15.8333 13.5662 15.7016 13.8006 15.4672C14.0351 15.2328 14.1667 14.9149 14.1667 14.5833V11.25C14.1667 10.9185 14.0351 10.6005 13.8006 10.3661C13.5662 10.1317 13.2483 10 12.9167 10C12.5852 10 12.2673 10.1317 12.0329 10.3661C11.7984 10.6005 11.6667 10.9185 11.6667 11.25V11.25Z" fill="#D1D5DB"/>
<path id="Vector_4" d="M16.6667 7.91662V14.5833C16.6667 14.9148 16.7984 15.2327 17.0329 15.4672C17.2673 15.7016 17.5852 15.8333 17.9167 15.8333C18.2483 15.8333 18.5662 15.7016 18.8006 15.4672C19.0351 15.2327 19.1667 14.9148 19.1667 14.5833V7.91662C19.1667 7.5851 19.0351 7.26716 18.8006 7.03274C18.5662 6.79832 18.2483 6.66663 17.9167 6.66663C17.5852 6.66663 17.2673 6.79832 17.0329 7.03274C16.7984 7.26716 16.6667 7.5851 16.6667 7.91662Z" fill="#D1D5DB"/>
<path id="Vector_5" d="M5.00014 6.24997C5.28385 6.25057 5.55919 6.15379 5.78013 5.9758L7.67846 4.4583C8.06179 4.15056 8.54531 3.99531 9.03613 4.02239C9.52696 4.04946 9.99047 4.25694 10.3376 4.60497C11.1388 5.39596 12.2061 5.85987 13.331 5.9061C14.4559 5.95233 15.5576 5.57755 16.421 4.85497L19.5576 2.2008C19.6913 2.09751 19.8026 1.9682 19.8848 1.82069C19.9671 1.67318 20.0187 1.51052 20.0363 1.34254C20.054 1.17456 20.0374 1.00475 19.9876 0.843344C19.9379 0.681942 19.8559 0.532305 19.7467 0.403467C19.6374 0.27463 19.5032 0.169264 19.3521 0.0937339C19.2011 0.0182035 19.0363 -0.0259253 18.8676 -0.0359877C18.699 -0.0460502 18.5301 -0.0218377 18.3712 0.0351879C18.2122 0.0922134 18.0664 0.180869 17.9426 0.295801L14.8068 2.94997C14.4227 3.27023 13.933 3.43575 13.4334 3.41418C12.9338 3.3926 12.4602 3.18548 12.1051 2.8333C11.3235 2.04949 10.28 1.58196 9.17476 1.52044C8.06956 1.45892 6.98057 1.80775 6.1168 2.49997L4.2193 4.02413C4.01715 4.18597 3.87024 4.40659 3.79888 4.65552C3.72753 4.90445 3.73524 5.1694 3.82096 5.41375C3.90668 5.65811 4.06618 5.86981 4.27741 6.0196C4.48864 6.1694 4.74118 6.2499 5.00014 6.24997V6.24997Z" fill="#D1D5DB"/>
</g>
<defs>
<clipPath id="clip0_1_2549">
<rect width="20" height="20" fill="white"/>
</clipPath>
</defs>
</svg>
