<svg width="20" height="20" viewBox="0 0 20 20" fill="none" xmlns="http://www.w3.org/2000/svg">
<g id="fi-br-carrot" clip-path="url(#clip0_1_2334)">
<path id="Vector" d="M18.75 4.16667H17.6009L18.8009 2.9675C19.0353 2.733 19.1671 2.41496 19.1671 2.08333C19.1671 1.75171 19.0353 1.43366 18.8009 1.19917C18.5664 0.964671 18.2483 0.832933 17.9167 0.832933C17.5851 0.832933 17.267 0.964671 17.0325 1.19917L15.8334 2.39917V1.25C15.8334 0.918479 15.7017 0.600537 15.4672 0.366116C15.2328 0.131696 14.9149 0 14.5834 0C14.2518 0 13.9339 0.131696 13.6995 0.366116C13.4651 0.600537 13.3334 0.918479 13.3334 1.25V3.78083C12.8756 3.38094 12.3622 3.0497 11.8092 2.7975C11.1323 2.49742 10.3762 2.42537 9.65477 2.5922C8.93335 2.75903 8.28566 3.1557 7.8092 3.7225C6.3792 5.15417 2.48504 12.2908 0.291709 16.4167C0.0462149 16.8769 -0.0448852 17.4039 0.0318428 17.9198C0.108571 18.4358 0.349066 18.9134 0.717862 19.2823C1.08666 19.6512 1.56424 19.8918 2.08016 19.9687C2.59609 20.0455 3.12307 19.9545 3.58337 19.7092C7.71087 17.515 14.8475 13.6192 16.2784 12.1892C18.3334 10.1375 17.475 8.2125 16.21 6.66667H18.75C19.0815 6.66667 19.3995 6.53497 19.6339 6.30055C19.8683 6.06613 20 5.74819 20 5.41667C20 5.08515 19.8683 4.7672 19.6339 4.53278C19.3995 4.29836 19.0815 4.16667 18.75 4.16667ZM14.51 10.4208C13.7707 11.0296 12.9803 11.5736 12.1475 12.0467L11.3009 11.1992C11.0664 10.9647 10.7483 10.8329 10.4167 10.8329C10.0851 10.8329 9.76703 10.9647 9.53253 11.1992C9.29804 11.4337 9.1663 11.7517 9.1663 12.0833C9.1663 12.2475 9.19864 12.4101 9.26148 12.5618C9.32432 12.7135 9.41642 12.8514 9.53253 12.9675L9.93253 13.3667C7.94087 14.5242 5.42087 15.9283 2.56087 17.4733C3.36337 15.9667 4.12587 14.5567 4.83754 13.2717L5.36587 13.8008C5.60036 14.0353 5.91841 14.1671 6.25004 14.1671C6.58166 14.1671 6.8997 14.0353 7.1342 13.8008C7.3687 13.5663 7.50043 13.2483 7.50043 12.9167C7.50043 12.585 7.3687 12.267 7.1342 12.0325L6.10587 11.005C6.77253 9.83833 7.3667 8.81667 7.87837 7.97917L8.6992 8.80083C8.93369 9.03533 9.25174 9.16707 9.58336 9.16707C9.91499 9.16707 10.233 9.03533 10.4675 8.80083C10.702 8.56634 10.8338 8.24829 10.8338 7.91667C10.8338 7.58504 10.702 7.26699 10.4675 7.0325L9.28086 5.84667C9.3729 5.72201 9.47224 5.60291 9.57836 5.49C10.1217 4.9825 10.3559 4.9 10.8284 5.095C11.6629 5.59301 12.4154 6.21705 13.0592 6.945C15.4009 9.29083 15.2609 9.66667 14.51 10.4208V10.4208Z" fill="#F97316"/>
</g>
<defs>
<clipPath id="clip0_1_2334">
<rect width="20" height="20" fill="white"/>
</clipPath>
</defs>
</svg>
