<svg width="20" height="20" viewBox="0 0 20 20" fill="none" xmlns="http://www.w3.org/2000/svg">
<g id="fi-br-document" clip-path="url(#clip0_1_2203)">
<path id="Vector" d="M14.1667 10.4167C14.1667 10.7482 14.0351 11.0661 13.8006 11.3006C13.5662 11.535 13.2483 11.6667 12.9167 11.6667H7.08341C6.75189 11.6667 6.43395 11.535 6.19953 11.3006C5.96511 11.0661 5.83341 10.7482 5.83341 10.4167C5.83341 10.0852 5.96511 9.76722 6.19953 9.5328C6.43395 9.29838 6.75189 9.16668 7.08341 9.16668H12.9167C13.2483 9.16668 13.5662 9.29838 13.8006 9.5328C14.0351 9.76722 14.1667 10.0852 14.1667 10.4167V10.4167ZM10.4167 13.3334H7.08341C6.75189 13.3334 6.43395 13.465 6.19953 13.6995C5.96511 13.9339 5.83341 14.2518 5.83341 14.5834C5.83341 14.9149 5.96511 15.2328 6.19953 15.4672C6.43395 15.7017 6.75189 15.8334 7.08341 15.8334H10.4167C10.7483 15.8334 11.0662 15.7017 11.3006 15.4672C11.5351 15.2328 11.6667 14.9149 11.6667 14.5834C11.6667 14.2518 11.5351 13.9339 11.3006 13.6995C11.0662 13.465 10.7483 13.3334 10.4167 13.3334V13.3334ZM18.3334 6.79752V15.4167C18.3321 16.6319 17.8488 17.7969 16.9895 18.6561C16.1303 19.5154 14.9653 19.9987 13.7501 20H6.25008C5.03491 19.9987 3.86989 19.5154 3.01064 18.6561C2.15138 17.7969 1.66807 16.6319 1.66675 15.4167V4.58335C1.66807 3.36818 2.15138 2.20316 3.01064 1.34391C3.86989 0.484653 5.03491 0.00134198 6.25008 1.85091e-05H11.5359C12.1381 -0.00169862 12.7346 0.116077 13.2909 0.346522C13.8472 0.576968 14.3522 0.915503 14.7767 1.34252L16.9909 3.55669C17.4179 3.98128 17.7563 4.48634 17.9868 5.04263C18.2172 5.59892 18.335 6.19539 18.3334 6.79752V6.79752ZM15.8334 15.4167V7.50002H12.5001C12.0581 7.50002 11.6341 7.32442 11.3216 7.01186C11.009 6.6993 10.8334 6.27538 10.8334 5.83335V2.50002H6.25008C5.69755 2.50002 5.16764 2.71951 4.77694 3.11021C4.38624 3.50091 4.16675 4.03082 4.16675 4.58335V15.4167C4.16675 15.9692 4.38624 16.4991 4.77694 16.8898C5.16764 17.2805 5.69755 17.5 6.25008 17.5H13.7501C14.3026 17.5 14.8325 17.2805 15.2232 16.8898C15.6139 16.4991 15.8334 15.9692 15.8334 15.4167Z" fill="#9CA3AF"/>
</g>
<defs>
<clipPath id="clip0_1_2203">
<rect width="20" height="20" fill="white"/>
</clipPath>
</defs>
</svg>
