<svg width="18" height="18" viewBox="0 0 18 18" fill="none" xmlns="http://www.w3.org/2000/svg">
<g id="Group">
<path id="Vector" d="M17.67 16.0839L14.1862 12.5986C16.7929 9.115 16.0822 4.17775 12.5986 1.57096C9.115 -1.03583 4.17775 -0.325041 1.57096 3.15854C-1.03583 6.64212 -0.325041 11.5794 3.15854 14.1862C5.95684 16.2802 9.80025 16.2802 12.5986 14.1862L16.0839 17.6715C16.5219 18.1095 17.232 18.1095 17.67 17.6715C18.108 17.2335 18.108 16.5234 17.67 16.0854L17.67 16.0839ZM7.90761 13.5135C4.81156 13.5135 2.30176 11.0036 2.30176 7.90761C2.30176 4.81157 4.81156 2.30176 7.90761 2.30176C11.0036 2.30176 13.5135 4.81157 13.5135 7.90761C13.5102 11.0022 11.0023 13.5102 7.90761 13.5135Z" fill="#9CA3AF"/>
</g>
</svg>
