<svg width="19" height="19" viewBox="0 0 19 19" fill="none" xmlns="http://www.w3.org/2000/svg">
<path d="M14.7959 6.39049C14.6914 6.28595 14.5674 6.20302 14.4308 6.14643C14.2943 6.08985 14.148 6.06073 14.0002 6.06073C13.8524 6.06073 13.706 6.08985 13.5695 6.14643C13.4329 6.20302 13.3089 6.28595 13.2044 6.39049L9.76491 9.82924C9.69458 9.89954 9.59922 9.93903 9.49978 9.93903C9.40034 9.93903 9.30498 9.89954 9.23466 9.82924L5.79591 6.39049C5.58496 6.17944 5.29881 6.06084 5.00042 6.06077C4.70203 6.0607 4.41583 6.17917 4.20478 6.39011C3.99374 6.60106 3.87513 6.88721 3.87506 7.1856C3.87499 7.48399 3.99346 7.77019 4.20441 7.98124L7.64391 11.4207C7.88766 11.6645 8.17705 11.8579 8.49555 11.9898C8.81405 12.1218 9.15541 12.1897 9.50016 12.1897C9.8449 12.1897 10.1863 12.1218 10.5048 11.9898C10.8233 11.8579 11.1126 11.6645 11.3564 11.4207L14.7959 7.98124C15.0068 7.77027 15.1253 7.48417 15.1253 7.18587C15.1253 6.88756 15.0068 6.60146 14.7959 6.39049Z" fill="#EAB308"/>
</svg>
