<svg width="18" height="18" viewBox="0 0 18 18" fill="none" xmlns="http://www.w3.org/2000/svg">
    <g clip-path="url(#clip0_1480_1267)">
        <path
            d="M17.25 3.375C17.25 2.75368 16.7463 2.25 16.125 2.25H13.293C12.8191 0.90552 11.5506 0.00457031 10.125 0H7.87501C6.44946 0.00457031 5.18092 0.90552 4.70701 2.25H1.875C1.25368 2.25 0.75 2.75368 0.75 3.375C0.75 3.99632 1.25368 4.5 1.875 4.5H2.25001V13.875C2.25001 16.1532 4.09684 18 6.375 18H11.625C13.9032 18 15.75 16.1532 15.75 13.875V4.5H16.125C16.7463 4.5 17.25 3.99632 17.25 3.375ZM13.5 13.875C13.5 14.9105 12.6606 15.75 11.625 15.75H6.375C5.33947 15.75 4.50001 14.9105 4.50001 13.875V4.5H13.5V13.875Z"
            fill="#FCA5A5" />
        <path
            d="M7.125 13.5C7.74632 13.5 8.25 12.9963 8.25 12.375V7.875C8.25 7.25368 7.74632 6.75 7.125 6.75C6.50368 6.75 6 7.25368 6 7.875V12.375C6 12.9963 6.50368 13.5 7.125 13.5Z"
            fill="#FCA5A5" />
        <path
            d="M10.875 13.5C11.4963 13.5 12 12.9963 12 12.375V7.875C12 7.25368 11.4963 6.75 10.875 6.75C10.2537 6.75 9.75 7.25368 9.75 7.875V12.375C9.75 12.9963 10.2537 13.5 10.875 13.5Z"
            fill="#FCA5A5" />
    </g>
    <defs>
        <clipPath id="clip0_1480_1267">
            <rect width="18" height="18" fill="white" />
        </clipPath>
    </defs>
</svg>