<svg width="16" height="17" viewBox="0 0 16 17" fill="none" xmlns="http://www.w3.org/2000/svg">
<g id="Group">
<path id="Vector" d="M5.17121 4.93382L7.02513 3.07924L7.03913 12.1669C7.03913 12.7191 7.48683 13.1668 8.03909 13.1668C8.59135 13.1668 9.03905 12.7191 9.03905 12.1669L9.02505 3.09059L10.8683 4.93385C11.252 5.33109 11.885 5.34208 12.2823 4.95841C12.6795 4.57474 12.6905 3.94171 12.3068 3.54447C12.2987 3.53613 12.2906 3.52794 12.2823 3.51991L10.141 1.37866C8.96949 0.207118 7.07007 0.207118 5.89852 1.37863L5.89849 1.37866L3.75727 3.51988C3.3736 3.91711 3.3846 4.55015 3.78183 4.93382C4.16935 5.30809 4.7837 5.30809 5.17121 4.93382Z" fill="#16A34A"/>
<path id="Vector_2" d="M14.9994 10.1641C14.4471 10.1641 13.9994 10.6118 13.9994 11.164V14.2245C13.999 14.375 13.8772 14.4968 13.7268 14.4972H2.27256C2.12213 14.4968 2.00026 14.375 1.99991 14.2245V11.164C1.99991 10.6118 1.55221 10.1641 0.999957 10.1641C0.447699 10.1641 0 10.6118 0 11.164V14.2245C0.00146869 15.479 1.01808 16.4956 2.27256 16.4971H13.7267C14.9812 16.4956 15.9978 15.479 15.9993 14.2245V11.164C15.9993 10.6118 15.5516 10.1641 14.9994 10.1641Z" fill="#4ADE80"/>
</g>
</svg>
