<svg width="20" height="20" viewBox="0 0 20 20" fill="none" xmlns="http://www.w3.org/2000/svg">
    <g clip-path="url(#clip0_1480_1242)">
        <path
            d="M6.46694 5.54301L8.78434 3.22479L8.80184 14.5843C8.80184 15.2746 9.36147 15.8342 10.0518 15.8342C10.7421 15.8342 11.3017 15.2746 11.3017 14.5843L11.2842 3.23897L13.5883 5.54305C14.0679 6.03959 14.8592 6.05334 15.3557 5.57375C15.8523 5.09416 15.866 4.30287 15.3864 3.80633C15.3764 3.7959 15.3661 3.78566 15.3557 3.77562L12.6792 1.09906C11.2148 -0.36537 8.84051 -0.36537 7.37608 1.09902L7.37605 1.09906L4.69952 3.77558C4.21993 4.27213 4.23368 5.06342 4.73022 5.54301C5.21462 6.01084 5.98255 6.01084 6.46694 5.54301Z"
            fill="#6B7280" />
        <path
            d="M18.7497 12.0842C18.0594 12.0842 17.4997 12.6439 17.4997 13.3342V17.1598C17.4993 17.3479 17.347 17.5002 17.1589 17.5006H2.84119C2.65315 17.5002 2.50081 17.3479 2.50038 17.1598V13.3342C2.50038 12.6439 1.94076 12.0842 1.25043 12.0842C0.560113 12.0842 0.000488281 12.6439 0.000488281 13.3342V17.1598C0.00232414 18.728 1.27309 19.9987 2.84119 20.0005H17.1589C18.727 19.9987 19.9978 18.7279 19.9996 17.1598V13.3342C19.9996 12.6439 19.44 12.0842 18.7497 12.0842Z"
            fill="#6B7280" />
    </g>
    <defs>
        <clipPath id="clip0_1480_1242">
            <rect width="20" height="20" fill="white" />
        </clipPath>
    </defs>
</svg>