<svg width="24" height="24" viewBox="0 0 24 24" fill="none" xmlns="http://www.w3.org/2000/svg">
<g clip-path="url(#clip0_1319_4795)">
<path d="M7.76024 6.65171L10.5411 3.86984L10.5621 17.5013C10.5621 18.3296 11.2337 19.0012 12.0621 19.0012C12.8904 19.0012 13.562 18.3296 13.562 17.5013L13.541 3.88686L16.3059 6.65176C16.8814 7.2476 17.8309 7.2641 18.4268 6.6886C19.0226 6.11309 19.0391 5.16354 18.4636 4.56769C18.4515 4.55517 18.4393 4.54289 18.4268 4.53085L15.2149 1.31897C13.4576 -0.438346 10.6085 -0.438346 8.8512 1.31892L8.85116 1.31897L5.63933 4.5308C5.06382 5.12665 5.08032 6.0762 5.67617 6.65171C6.25744 7.21311 7.17896 7.21311 7.76024 6.65171Z" fill="#6B7280"/>
<path d="M22.4995 14.501C21.6711 14.501 20.9996 15.1725 20.9996 16.0009V20.5917C20.999 20.8173 20.8163 21.0001 20.5906 21.0007H3.40933C3.18368 21.0001 3.00087 20.8173 3.00036 20.5917V16.0009C3.00036 15.1725 2.32881 14.501 1.50042 14.501C0.672038 14.501 0.000488281 15.1725 0.000488281 16.0009V20.5917C0.00269131 22.4734 1.52761 23.9983 3.40933 24.0005H20.5906C22.4723 23.9983 23.9972 22.4734 23.9994 20.5917V16.0009C23.9995 15.1725 23.3279 14.501 22.4995 14.501Z" fill="#6B7280"/>
</g>
<defs>
<clipPath id="clip0_1319_4795">
<rect width="24" height="24" fill="white"/>
</clipPath>
</defs>
</svg>
