<svg width="14" height="20" viewBox="0 0 14 20" fill="none" xmlns="http://www.w3.org/2000/svg">
<g id="Group">
<path id="Vector" d="M6.54362 11.6826C2.99217 12.0037 0.286466 15.0046 0.333615 18.5702V18.751C0.333615 19.4413 0.893263 20.001 1.58361 20.001C2.27397 20.001 2.83361 19.4413 2.83361 18.751V18.5202C2.79604 16.3309 4.41166 14.464 6.58362 14.1868C8.87631 13.9595 10.9192 15.6338 11.1466 17.9265C11.16 18.062 11.1668 18.1981 11.1669 18.3343V18.751C11.1669 19.4413 11.7266 20.001 12.4169 20.001C13.1073 20.001 13.6669 19.4413 13.6669 18.751V18.3343C13.6629 14.6482 10.6714 11.6634 6.98541 11.6675C6.83803 11.6677 6.69069 11.6727 6.54362 11.6826Z" fill="#F97316"/>
<path id="Vector_2" d="M7.00024 10C9.76165 10 12.0002 7.76141 12.0002 5C12.0002 2.23859 9.76165 0 7.00024 0C4.23884 0 2.00024 2.23859 2.00024 5C2.00298 7.76027 4.23997 9.99723 7.00024 10ZM7.00024 2.5C8.38095 2.5 9.50024 3.6193 9.50024 5C9.50024 6.3807 8.38095 7.5 7.00024 7.5C5.61954 7.5 4.50024 6.3807 4.50024 5C4.50024 3.6193 5.61954 2.5 7.00024 2.5Z" fill="#FB923C"/>
</g>
</svg>
