<svg width="20" height="20" viewBox="0 0 20 20" fill="none" xmlns="http://www.w3.org/2000/svg">
<path d="M19.6343 17.8713L15.7634 13.9987C18.6598 10.128 17.87 4.64219 13.9994 1.74576C10.1288 -1.15068 4.64292 -0.360912 1.74649 3.50973C-1.14994 7.38038 -0.36018 12.8662 3.51046 15.7626C6.61969 18.0893 10.8901 18.0893 13.9994 15.7626L17.872 19.6352C18.3587 20.1219 19.1477 20.1219 19.6343 19.6352C20.121 19.1486 20.121 18.3596 19.6343 17.8729L19.6343 17.8713ZM8.7872 15.0152C5.34716 15.0152 2.55848 12.2265 2.55848 8.78647C2.55848 5.34643 5.34716 2.55775 8.7872 2.55775C12.2273 2.55775 15.0159 5.34643 15.0159 8.78647C15.0123 12.225 12.2257 15.0115 8.7872 15.0152Z" fill="#9CA3AF"/>
</svg>
