<svg width="32" height="33" viewBox="0 0 32 33" fill="none" xmlns="http://www.w3.org/2000/svg">
<g clip-path="url(#clip0_1420_21126)">
<path d="M18.8278 16.5L31.414 3.91516C32.1953 3.13388 32.1953 1.86718 31.414 1.08596C30.6327 0.30468 29.366 0.30468 28.5848 1.08596L16 13.6721L3.41516 1.08596C2.63388 0.30468 1.36718 0.30468 0.58596 1.08596C-0.195258 1.86724 -0.19532 3.13394 0.58596 3.91516L13.1721 16.5L0.58596 29.0848C-0.19532 29.8661 -0.19532 31.1328 0.58596 31.914C1.36724 32.6952 2.63394 32.6953 3.41516 31.914L16 19.3278L28.5848 31.914C29.366 32.6953 30.6327 32.6953 31.4139 31.914C32.1952 31.1327 32.1952 29.866 31.4139 29.0848L18.8278 16.5Z" fill="#1F2937"/>
</g>
<defs>
<clipPath id="clip0_1420_21126">
<rect width="32" height="32" fill="white" transform="translate(0 0.5)"/>
</clipPath>
</defs>
</svg>
